<svg width="95" height="130" viewBox="0 0 95 130" fill="none" xmlns="http://www.w3.org/2000/svg">
<path d="M33.0276 79.6989C31.0006 80.629 29.59 82.548 30.3157 84.8726C30.9152 86.7927 33.4475 88.5214 35.4894 87.5846C43.3677 83.9697 51.0482 80.2106 59.252 77.3496C67.3658 74.5202 75.5583 71.9176 83.7516 69.3721C85.4803 68.8349 85.0909 65.9947 83.207 66.1628C78.9062 66.546 74.582 66.9495 70.3571 67.9002C66.1091 68.8562 61.8352 69.8585 57.6547 71.078C49.3811 73.4918 40.8723 76.0994 33.0276 79.6989Z" fill="#676767"/>
<path d="M20.9618 64.3715C20.2258 64.8863 20.0329 66.0266 20.7701 66.6522C21.8067 67.5321 23.1891 67.8004 24.4194 68.3119C25.8552 68.9086 27.7008 68.6967 29.2284 68.7128C32.1453 68.7436 35.0478 68.6785 37.9583 68.4794C44.0563 68.062 49.8402 66.9482 55.7627 65.5522C57.7069 65.0941 57.15 61.9674 55.1768 62.0997C49.4082 62.4866 43.5525 62.561 37.7644 62.7131C34.8555 62.7895 31.9411 62.8485 29.0314 62.8524C27.7398 62.8542 26.1543 62.564 24.9035 62.9545C23.6516 63.3454 22.0327 63.6227 20.9618 64.3715Z" fill="#676767"/>
<path d="M25.258 46.0743C24.5117 46.4778 24.0223 47.7088 24.3732 48.5123C25.4062 50.8776 27.6857 51.8363 30.0236 52.5473C32.2646 53.2289 34.5253 53.8451 36.8022 54.3948C41.3562 55.494 46.0059 56.2371 50.661 56.7469C55.3964 57.2655 60.1041 57.5203 64.8646 57.4187C69.601 57.3179 74.1917 56.6542 78.8693 55.9539C81.3378 55.5843 81.3555 51.8291 78.7357 51.974C74.2574 52.2218 69.7682 52.0102 65.2876 51.8245C60.7761 51.6377 56.237 51.2337 51.7643 50.6024C47.3244 49.9757 42.9417 49.0692 38.5868 48.0082C36.4094 47.4777 34.2472 46.8867 32.1032 46.2356C29.842 45.5492 27.4715 44.8774 25.258 46.0743Z" fill="#676767"/>
<path d="M25.2957 29.4816C25.81 31.3555 27.5038 32.2186 29.0432 33.1963C30.4723 34.1038 31.9319 34.9409 33.4331 35.724C36.4282 37.2867 39.5118 38.6809 42.6627 39.8992C45.7758 41.1027 48.9262 42.1622 52.164 42.9779C53.799 43.3899 55.448 43.7726 57.1071 44.0766C58.8761 44.4008 60.6713 44.3134 62.4641 44.3531C64.8885 44.407 64.8936 41.0381 62.8489 40.3737C61.3213 39.8773 59.8796 39.1963 58.3264 38.7828C56.7886 38.3731 55.2533 37.9657 53.7321 37.496C50.7493 36.5749 47.7888 35.5401 44.9032 34.3485C41.9665 33.136 39.0935 31.7687 36.3007 30.2534C34.905 29.4962 33.5208 28.7125 32.1443 27.9209C30.7283 27.1067 29.3336 25.9762 27.6103 26.2202C25.9726 26.4521 24.8286 27.7795 25.2957 29.4816Z" fill="#676767"/>
<path d="M35.4728 4.35883C37.5394 8.34491 41.2194 11.4293 44.3882 14.544C47.5632 17.6648 50.8882 20.6218 54.3566 23.4135C57.7743 26.1644 61.4428 28.4911 65.1949 30.7543C69.0597 33.0853 73.1276 34.7976 77.3725 36.3152C79.4352 37.0527 80.6159 33.6946 78.692 32.7508C71.0343 28.9938 64.4272 23.6513 58.0972 17.9955C54.9269 15.1627 51.8979 12.1691 48.8812 9.1745C45.7717 6.08778 42.9599 2.57063 39.1108 0.382248C36.4979 -1.10327 34.2826 2.06296 35.4728 4.35883Z" fill="#676767"/>
<path d="M74.3832 83.6115C67.9356 86.8016 62.211 90.8272 57.0644 95.872C54.5759 98.3112 52.2472 100.915 50.1058 103.664C49.0312 105.044 48.0098 106.462 47.0178 107.902C45.9263 109.486 44.2515 111.321 45.1588 113.344C45.621 114.375 46.4742 115.206 47.6914 115.142C49.9134 115.026 50.6535 113.386 51.7088 111.703C52.5792 110.316 53.4914 108.955 54.461 107.635C56.4665 104.904 58.6497 102.304 60.991 99.8552C65.6279 95.0054 70.8658 90.5338 76.4031 86.7511C78.4286 85.3674 76.4954 82.5662 74.3832 83.6115Z" fill="#676767"/>
<path d="M91.4575 82.041C85.2243 87.6391 79.6688 93.8269 74.8939 100.719C72.5547 104.095 70.2981 107.559 68.2695 111.131C66.1591 114.846 63.9482 118.591 62.8933 122.749C62.0037 126.257 66.892 127.81 68.6333 124.874C70.6749 121.432 71.9634 117.594 73.7424 113.999C75.5229 110.402 77.4214 106.898 79.5788 103.512C83.8717 96.7725 88.6725 90.3208 93.9955 84.3546C95.4941 82.6751 93.0741 80.5891 91.4575 82.041Z" fill="#676767"/>
<path d="M0.923732 68.0006C0.684142 67.8405 1.33519 68.5544 1.27798 68.5036C1.68944 68.8712 2.18555 69.0405 2.70577 69.1821C3.59 69.4227 4.53477 69.5274 5.4408 69.6674C7.2403 69.9452 9.06468 69.9134 10.8814 70.0425C13.0438 70.1961 12.9379 67.1612 11.2187 66.5545C9.55438 65.9671 7.95855 65.2332 6.24576 64.7994C5.4508 64.5981 4.65585 64.3592 3.84653 64.2297C2.76247 64.056 2.22506 64.4783 1.22566 64.6581C-0.509451 64.9698 -0.207013 67.2451 0.923732 68.0006Z" fill="#676767"/>
<path d="M38.5698 116.248C37.2418 117.971 35.6939 119.322 34.0799 120.761C32.5074 122.163 30.8562 123.507 29.2488 124.87C27.1561 126.643 29.6716 130.449 32.1419 129.412C34.6612 128.355 36.5384 127.118 38.3956 125.089C40.0545 123.276 41.2186 121.051 42.2488 118.825C43.2713 116.617 40.2197 114.108 38.5698 116.248Z" fill="#676767"/>
<path d="M10.2355 14.073C9.2915 16.3091 11.1079 18.2266 12.586 19.7724C14.0677 21.3217 15.9946 22.4253 17.9888 23.1761C20.6056 24.1614 22.7291 20.517 20.0682 19.209C18.555 18.4654 17.2832 17.4927 16.0567 16.3406C14.9108 15.264 14.0582 13.267 12.3626 13.0951C11.5643 13.0143 10.5898 13.2342 10.2355 14.073Z" fill="#676767"/>
</svg>
