<svg width="95" height="130" viewBox="0 0 95 130" fill="none" xmlns="http://www.w3.org/2000/svg">
<path d="M61.4383 49.8893C63.4653 48.9591 64.8759 47.0401 64.1502 44.7155C63.5508 42.7954 61.0184 41.0667 58.9765 42.0036C51.0982 45.6184 43.4177 49.3775 35.2139 52.2385C27.1001 55.0679 18.9076 57.6706 10.7143 60.216C8.98563 60.7532 9.37502 63.5934 11.2589 63.4254C15.5597 63.0421 19.8839 62.6386 24.1088 61.688C28.3568 60.7319 32.6307 59.7297 36.8112 58.5102C45.0848 56.0963 53.5936 53.4888 61.4383 49.8893Z" fill="#676767"/>
<path d="M73.5041 65.2167C74.2401 64.7018 74.433 63.5616 73.6958 62.9359C72.6592 62.0561 71.2768 61.7877 70.0465 61.2762C68.6107 60.6796 66.7651 60.8915 65.2375 60.8753C62.3206 60.8445 59.4181 60.9097 56.5076 61.1087C50.4096 61.5261 44.6257 62.6399 38.7032 64.0359C36.759 64.494 37.3159 67.6208 39.2891 67.4884C45.0577 67.1016 50.9134 67.0272 56.7015 66.8751C59.6105 66.7986 62.5248 66.7396 65.4345 66.7358C66.7261 66.734 68.3116 67.0241 69.5624 66.6337C70.8143 66.2427 72.4332 65.9654 73.5041 65.2167Z" fill="#676767"/>
<path d="M69.2079 83.5138C69.9542 83.1103 70.4436 81.8793 70.0927 81.0759C69.0597 78.7105 66.7802 77.7519 64.4423 77.0408C62.2013 76.3592 59.9406 75.7431 57.6637 75.1933C53.1097 74.0941 48.46 73.351 43.8049 72.8413C39.0695 72.3226 34.3618 72.0679 29.6013 72.1695C24.8649 72.2703 20.2742 72.9339 15.5966 73.6342C13.1281 74.0038 13.1104 77.7591 15.7302 77.6141C20.2086 77.3663 24.6977 77.578 29.1783 77.7637C33.6898 77.9504 38.2289 78.3544 42.7016 78.9857C47.1415 79.6124 51.5242 80.519 55.8791 81.5799C58.0565 82.1104 60.2187 82.7014 62.3627 83.3525C64.6239 84.0389 66.9944 84.7108 69.2079 83.5138Z" fill="#676767"/>
<path d="M69.1702 100.107C68.6559 98.2327 66.9621 97.3695 65.4227 96.3919C63.9936 95.4843 62.534 94.6473 61.0328 93.8641C58.0377 92.3014 54.9541 90.9072 51.8032 89.689C48.6901 88.4854 45.5397 87.426 42.3019 86.6102C40.6669 86.1983 39.0179 85.8155 37.3588 85.5115C35.5898 85.1873 33.7946 85.2748 32.0018 85.235C29.5774 85.1811 29.5723 88.55 31.617 89.2144C33.1446 89.7108 34.5863 90.3919 36.1395 90.8054C37.6774 91.215 39.2126 91.6224 40.7338 92.0921C43.7166 93.0133 46.6771 94.048 49.5627 95.2396C52.4994 96.4522 55.3724 97.8194 58.1652 99.3347C59.5609 100.092 60.9451 100.876 62.3216 101.667C63.7376 102.481 65.1323 103.612 66.8556 103.368C68.4933 103.136 69.6373 101.809 69.1702 100.107Z" fill="#676767"/>
<path d="M58.9931 125.229C56.9265 121.243 53.2465 118.159 50.0777 115.044C46.9027 111.923 43.5777 108.966 40.1093 106.175C36.6916 103.424 33.0231 101.097 29.271 98.8338C25.4062 96.5028 21.3383 94.7905 17.0934 93.2729C15.0307 92.5354 13.85 95.8935 15.7739 96.8373C23.4316 100.594 30.0387 105.937 36.3687 111.593C39.539 114.425 42.568 117.419 45.5847 120.414C48.6943 123.5 51.506 127.018 55.3551 129.206C57.968 130.691 60.1833 127.525 58.9931 125.229Z" fill="#676767"/>
<path d="M20.0827 45.9766C26.5303 42.7865 32.2549 38.7609 37.4015 33.7162C39.89 31.2769 42.2187 28.673 44.3601 25.9238C45.4347 24.5445 46.4561 23.1257 47.4481 21.6861C48.5396 20.1021 50.2144 18.2667 49.3071 16.2442C48.8449 15.2135 47.9917 14.3824 46.7745 14.4458C44.5525 14.5617 43.8124 16.2019 42.7571 17.8847C41.8867 19.2725 40.9745 20.6331 40.0049 21.9534C37.9994 24.6838 35.8162 27.2842 33.4749 29.7329C28.838 34.5827 23.6001 39.0544 18.0628 42.837C16.0373 44.2207 17.9705 47.0219 20.0827 45.9766Z" fill="#676767"/>
<path d="M3.0084 47.5471C9.24161 41.949 14.7971 35.7612 19.572 28.869C21.9112 25.4927 24.1678 22.0289 26.1964 18.4573C28.3068 14.7419 30.5177 10.9975 31.5726 6.83874C32.4622 3.33133 27.5739 1.77783 25.8326 4.71372C23.791 8.15572 22.5025 11.994 20.7235 15.5887C18.943 19.1859 17.0445 22.6897 14.8871 26.076C10.5942 32.8156 5.79344 39.2674 0.470366 45.2335C-1.02823 46.913 1.3918 48.999 3.0084 47.5471Z" fill="#676767"/>
<path d="M93.5422 61.5876C93.7818 61.7476 93.1307 61.0338 93.1879 61.0845C92.7765 60.7169 92.2804 60.5476 91.7601 60.406C90.8759 60.1654 89.9311 60.0608 89.0251 59.9207C87.2256 59.6429 85.4012 59.6747 83.5845 59.5457C81.4221 59.392 81.528 62.4269 83.2472 63.0336C84.9115 63.621 86.5073 64.3549 88.2201 64.7887C89.0151 64.9901 89.8101 65.2289 90.6194 65.3584C91.7034 65.5321 92.2408 65.1099 93.2402 64.9301C94.9754 64.6184 94.6729 62.343 93.5422 61.5876Z" fill="#676767"/>
<path d="M55.8961 13.34C57.2241 11.6172 58.772 10.2661 60.386 8.82699C61.9585 7.42484 63.6097 6.08067 65.2171 4.71854C67.3098 2.94521 64.7943 -0.86079 62.324 0.176068C59.8047 1.23319 57.9275 2.47013 56.0703 4.49947C54.4114 6.31205 53.2473 8.53763 52.2171 10.763C51.1946 12.9713 54.2462 15.4799 55.8961 13.34Z" fill="#676767"/>
<path d="M84.2304 115.515C85.1744 113.279 83.358 111.362 81.8799 109.816C80.3983 108.266 78.4713 107.163 76.4771 106.412C73.8603 105.427 71.7368 109.071 74.3977 110.379C75.9109 111.123 77.1827 112.095 78.4092 113.248C79.5551 114.324 80.4077 116.321 82.1033 116.493C82.9016 116.574 83.8762 116.354 84.2304 115.515Z" fill="#676767"/>
</svg>
